<svg width="133" height="121" viewBox="0 0 133 121" fill="none" xmlns="http://www.w3.org/2000/svg">
<path fill-rule="evenodd" clip-rule="evenodd" d="M79.3129 20.4727C79.5653 19.9588 80.2838 19.8428 80.8201 20.2293L101.935 35.4452C102.674 35.9773 102.517 37.0009 101.677 37.1366L70.6266 42.1516C69.7862 42.2873 69.0305 41.4111 69.3779 40.7036L74.574 30.1228C71.125 29.3409 67.4522 29.0072 63.7354 29.1479C58.4477 29.348 53.2557 30.5013 48.6767 32.493C44.0977 34.4846 40.2917 37.2451 37.6377 40.4992C34.9837 43.7534 33.5745 47.3878 33.5504 51.0401C33.5263 54.6925 34.8882 58.2354 37.5005 61.3159C40.1127 64.3963 43.8841 66.9068 48.4388 68.5971C52.9935 70.2875 58.1726 71.0987 63.46 70.9499C68.0329 70.8212 72.5488 69.9784 76.6718 68.4925C77.7473 68.105 79.1645 68.4572 79.9018 69.3415C80.6597 70.2505 80.4092 71.3708 79.3084 71.7755C74.3546 73.5968 68.9102 74.6295 63.3957 74.7847C57.1385 74.9607 51.0096 74.0007 45.6195 72.0004C40.2294 70 35.7663 67.0291 32.675 63.3837C29.5836 59.7382 27.9719 55.5455 28.0004 51.2232C28.0289 46.901 29.6966 42.6001 32.8373 38.749C35.9781 34.898 40.4822 31.6313 45.901 29.2743C51.3198 26.9174 57.4641 25.5525 63.7217 25.3157C68.0619 25.1514 72.3515 25.5338 76.386 26.433L79.3129 20.4727ZM63.1552 91.2551L71.1393 85.5017C71.8777 84.9695 71.7213 83.946 70.8808 83.8102L39.8307 78.7952C38.9903 78.6595 38.2346 79.5358 38.582 80.2433L48.517 100.474C48.7694 100.988 49.4879 101.104 50.0242 100.718L58.5598 94.5667C62.9646 95.3711 67.6159 95.5629 72.255 95.1194C78.4661 94.5257 84.4384 92.814 89.5769 90.1549C94.7153 87.4958 98.8405 83.9821 101.541 79.9638C104.242 75.9456 105.425 71.5631 104.971 67.253C104.517 62.9429 102.442 58.8557 98.9537 55.3986C95.4654 51.9415 90.685 49.2352 85.0888 47.5493C79.4927 45.8634 73.2762 45.2568 67.0587 45.7899C61.6112 46.2569 56.3295 47.5846 51.6159 49.6621C50.5151 50.1473 50.3523 51.2926 51.207 52.1532C52.043 52.9949 53.5398 53.247 54.6224 52.7794C58.5421 51.0863 62.9151 50.0025 67.4226 49.616C72.6765 49.1656 77.9295 49.6782 82.6584 51.1028C87.3872 52.5274 91.4267 54.8143 94.3744 57.7356C97.3221 60.6569 99.0751 64.1107 99.4588 67.7527C99.8424 71.3948 98.8433 75.0981 96.561 78.4936C94.2787 81.8891 90.7929 84.8582 86.4508 87.1052C82.1088 89.3522 77.0621 90.7986 71.8136 91.3003C68.9033 91.5785 65.9874 91.5608 63.1552 91.2551Z" fill="black"/>
<path fill-rule="evenodd" clip-rule="evenodd" d="M67.7414 0.19168C67.4911 -0.0275833 67.1286 -0.0621951 66.8413 0.105738L66.4591 0.329181C66.459 0.329217 66.459 0.329217 66.4589 0.329183V0.329183C66.4588 0.329142 66.4587 0.329149 66.4587 0.329204L3.16178 55.7766C2.91819 55.99 2.95537 56.3794 3.23494 56.5428V56.5428C3.41106 56.6457 3.6333 56.6245 3.78676 56.4901L66.5196 1.53675C66.8968 1.20636 67.4603 1.20637 67.8375 1.53676L129.994 55.9855C130.148 56.12 130.37 56.1412 130.546 56.0382V56.0382C130.826 55.8748 130.863 55.4855 130.619 55.2721L67.7414 0.19168ZM67.7428 119.81C67.4917 120.03 67.1279 120.064 66.8396 119.896L66.4591 119.673C66.459 119.673 66.459 119.673 66.4589 119.673V119.673C66.4588 119.674 66.4587 119.674 66.4587 119.673L3.16178 64.226C2.91819 64.0126 2.95537 63.6233 3.23494 63.4599V63.4599C3.41106 63.3569 3.6333 63.3781 3.78676 63.5126L66.5196 118.466C66.8968 118.796 67.4603 118.796 67.8375 118.466L129.994 64.0171C130.148 63.8827 130.37 63.8615 130.546 63.9644V63.9644C130.826 64.1279 130.863 64.5172 130.619 64.7306L67.7428 119.81Z" fill="black"/>
<path fill-rule="evenodd" clip-rule="evenodd" d="M67.3928 5V19.9542H68.3928V5H67.3928ZM8 60.0941L28.8975 60.0941V59.0941L8 59.0941V60.0941ZM126.786 60.0941L105.888 60.0941V59.0941L126.786 59.0941V60.0941ZM67.3928 100.234V115.188H68.3928V100.234H67.3928Z" fill="black"/>
</svg>
