<svg fill="none" xmlns="http://www.w3.org/2000/svg" viewBox="0 0 228 228">
  <path class="arrows" fill-rule="evenodd" clip-rule="evenodd" d="M132.566 54.465c.252-.548 1.003-.678 1.539-.265l21.223 16.307c.701.54.517 1.548-.309 1.69l-31.209 5.376c-.826.142-1.56-.709-1.23-1.426l5.257-11.415c-3.449-.833-7.122-1.189-10.839-1.04-5.287.214-10.479 1.444-15.058 3.568-4.58 2.124-8.385 5.067-11.04 8.537-2.653 3.47-4.063 7.345-4.087 11.24-.024 3.894 1.338 7.672 3.95 10.957 2.613 3.285 6.384 5.962 10.939 7.764 4.554 1.803 9.734 2.668 15.021 2.509 4.547-.136 9.037-1.026 13.141-2.593 1.115-.426 2.566-.062 3.304.883.757.967.478 2.171-.658 2.614-4.938 1.927-10.36 3.02-15.851 3.185-6.258.188-12.386-.836-17.777-2.969-5.39-2.133-9.853-5.301-12.944-9.188-3.091-3.887-4.703-8.358-4.675-12.967.029-4.609 1.697-9.195 4.837-13.301 3.141-4.107 7.645-7.59 13.064-10.103 5.419-2.514 11.563-3.969 17.821-4.221 4.34-.175 8.629.232 12.664 1.191l2.917-6.333Zm-16.148 75.454 8.114-6.235c.702-.539.517-1.548-.309-1.69l-31.209-5.375c-.826-.142-1.56.708-1.23 1.425l9.986 21.682c.252.549 1.003.678 1.539.266l8.514-6.542c4.405.858 9.056 1.062 13.695.589 6.211-.633 12.183-2.458 17.322-5.294 5.138-2.835 9.263-6.582 11.964-10.866 2.701-4.285 3.884-8.958 3.43-13.554-.454-4.596-2.529-8.954-6.017-12.64-3.489-3.687-8.269-6.573-13.865-8.37-5.596-1.798-11.813-2.445-18.03-1.877-5.431.497-10.696 1.905-15.398 4.108-1.127.528-1.311 1.758-.457 2.674.837.9 2.358 1.158 3.47.648 3.907-1.792 8.261-2.94 12.749-3.35 5.253-.48 10.506.067 15.235 1.586 4.729 1.519 8.769 3.957 11.716 7.072 2.948 3.115 4.701 6.798 5.085 10.682.383 3.883-.616 7.832-2.898 11.453-2.282 3.62-5.768 6.787-10.11 9.183s-9.389 3.938-14.638 4.473c-2.91.296-5.826.278-8.658-.048Z" fill="#000"/>
  <path class="little-lines" fill-rule="evenodd" clip-rule="evenodd" d="M121.003 33.795a.706.706 0 0 0-.855-.083l-.389.243h-.001L56.426 93.112a.483.483 0 0 0 .66.706l62.697-58.564a1 1 0 0 1 1.366 0L183.28 93.29a.483.483 0 0 0 .66-.706l-62.937-58.789Zm-.002 127.579a.702.702 0 0 1-.851.083l-.391-.244h-.001l-63.332-59.157a.484.484 0 0 1 .66-.706l62.697 58.565a1 1 0 0 0 1.366 0l62.131-58.036a.483.483 0 0 1 .66.706l-62.939 58.789Z" fill="#000"/>
  <path class="border-lines" fill-rule="evenodd" clip-rule="evenodd" d="M119.758 38.151v15.946h1V38.15h-1ZM60.366 96.9h20.897v-1H60.365v1Zm118.785 0h-20.897v-1h20.897v1ZM119.758 139.7v15.945h1v-15.945h-1Z" fill="#000"/>
</svg>
